PathFileType	4	(X/Y/Z)	5_coords_data.trc
DataRate	CameraRate	NumFrames	NumMarkers	Units	OrigDataRate	OrigDataStartFrame	OrigNumFrames
30.0	30.0	4	21	m	30.0	1	62
Frame#	Time	THUMB_TIP	THUMB_IP	THUMB_MCP	THUMB_CMC	INDEX_TIP	INDEX_DIP	INDEX_PIP	INDEX_MCP	MIDDLE_TIP	MIDDLE_DIP	MIDDLE_PIP	MIDDLE_MCP	RING_TIP	RING_DIP	RING_PIP	RING_MCP	PINKY_TIP	PINKY_DIP	PINKY_PIP	PINKY_MCP	WRIST
X1	Y1	Z1	X2	Y2	Z2	X3	Y3	Z3	X4	Y4	Z4	X5	Y5	Z5	X6	Y6	Z6	X7	Y7	Z7	X8	Y8	Z8	X9	Y9	Z9	X10	Y10	Z10	X11	Y11	Z11	X12	Y12	Z12	X13	Y13	Z13	X14	Y14	Z14	X15	Y15	Z15	X16	Y16	Z16	X17	Y17	Z17	X18	Y18	Z18	X19	Y19	Z19	X20	Y20	Z20	X21	Y21	Z21
0	-2.749317978547796e-18	0.4796956628394401	-0.026340942587386174	-0.17418277583358568	0.48517676781083996	-0.025699926155122954	-0.15187702352109766	0.4756734936132727	-0.029763155832119192	-0.12251722202112439	0.47209639220309374	-0.02972698833040499	-0.07805270765952237	0.492615022339411	-0.013066667669347831	-0.10087547052898214	0.5098991827661368	-0.01847185315421651	-0.10107984327025264	0.5304051907599471	-0.007605524945626385	-0.11074609282325837	0.4992554508701388	0.02126294098614878	-0.11389910305845102	0.49743535132591576	-0.01499060640775618	-0.08621451792589596	0.5154901251654309	-0.01515550524987519	-0.0848010293423447	0.5377963756796853	0.0019370567535619276	-0.09252664013722567	0.5041359986232032	0.03105964839614317	-0.09639982918953255	0.501879667297968	-0.0035600430476880884	-0.06909473760011589	0.5198939124832244	-0.0038947746863904342	-0.0697070489061648	0.5394329862626115	0.011057345851570033	-0.07355914784855633	0.5087165709391328	0.037061252312509674	-0.07743464942206454	0.5063461259915084	-0.004213422815441681	-0.050650740748467094	0.5216611121643588	-0.011858593655303507	-0.05070135057681112	0.5363879356361978	0.002954189124321993	-0.05282600484349109	0.5131579151825872	0.03046567619542706	-0.05491590432941179	0.4622830810018609	-0.023011742144276925	-0.051989820119430985
1	0.03333333333333339	0.4794042628658052	-0.026400686586603772	-0.1740278289352915	0.4852022266525	-0.02583957203811349	-0.15180017124511536	0.4754278149884399	-0.029528231476166344	-0.12247996203420507	0.47275353989625246	-0.0290854074496969	-0.07795421488030671	0.4931055139194588	-0.014192006475986951	-0.10015666968928391	0.510537025580133	-0.019064360569977068	-0.10079115121505954	0.5307236550352028	-0.007866106761351133	-0.1107464983150508	0.4994181202628687	0.020807635491472687	-0.11412526907330083	0.49802160816011687	-0.015314979778902171	-0.08561804094991211	0.5161105706129372	-0.015088693693817046	-0.08475883667376527	0.5383821364998052	0.001911775148614736	-0.0927819883041661	0.5044943721825436	0.030806536598188772	-0.09636808804482297	0.5023218055300731	-0.0034964746768924027	-0.06899294718880772	0.520318099083813	-0.004472783807813352	-0.06941749260275373	0.5398504339989809	0.01042708897827438	-0.0734993626055967	0.5093031275407082	0.03662981535297727	-0.07737235017036073	0.5060743927408994	-0.0044915096189951376	-0.05084910472507001	0.5217008706756562	-0.011476935411033895	-0.05071866754295845	0.5366992325583947	0.003006567124278825	-0.05318632111345953	0.5132622877766975	0.030360422711482093	-0.05501925723185275	0.4622830810018608	-0.023011742144276925	-0.051989820119430985
2	0.06666666666666676	0.47916351965655657	-0.0264435495596288	-0.17387361010642444	0.48518845618959805	-0.025950702520520008	-0.15170477518961242	0.4751909374842276	-0.029369043384091742	-0.12242706070442416	0.4732161665870901	-0.028615913832735207	-0.07786897416805352	0.4935037052638732	-0.015049520179956866	-0.09961312143548005	0.5110322645464032	-0.0195009486619504	-0.10057976198321782	0.5309730142096545	-0.008052585132189982	-0.11074397903904626	0.4995449049841122	0.0204666176019751	-0.11428871032857688	0.4984790837803821	-0.015551394074645342	-0.08516005003082604	0.5165772232392285	-0.015032265467236905	-0.08472662919939819	0.5388272077526043	0.0018907265272681828	-0.09297041965697665	0.5047716622399658	0.030614214335129786	-0.09633627600985947	0.5026729016120705	-0.0034688333883523548	-0.06891320812086436	0.5206404597442287	-0.004912594265360615	-0.06920027831704524	0.5401662188174988	0.00994902332887071	-0.07344963522079585	0.5097466113843265	0.03630048690696619	-0.07731857369329721	0.5058984145854817	-0.004705746548299139	-0.050997573660068726	0.5217378455121947	-0.011189718216603528	-0.050731981260868184	0.5369314896386529	0.003043089442316904	-0.053450875025383815	0.513343235428718	0.03027860608966859	-0.05509536500082317	0.4622830810018609	-0.023011742144276925	-0.051989820119430985
3	0.10000000000000014	0.4790060006381466	-0.026446464283512605	-0.17374208102245078	0.485180372616012	-0.02601155826023538	-0.15161318616911781	0.475003131336333	-0.0292538035789488	-0.1223773929486752	0.4735303495755193	-0.02828358024354738	-0.07780408725384869	0.4938080637004725	-0.015673187247716158	-0.09921859127363983	0.5113996566870352	-0.01980349369694756	-0.1004336735056527	0.5311617169119692	-0.008173500291171365	-0.11073969417551771	0.49964048611198697	0.02022845853375388	-0.11439713013005043	0.4988111834816257	-0.01571097610318173	-0.08482532179067297	0.516907003302648	-0.014985712288238084	-0.0847016391167537	0.5391478159371074	0.0018736393204635826	-0.09309914271562417	0.5049764314165174	0.030477659221295306	-0.09630452045604712	0.5029348993787423	-0.0034739955624761842	-0.06884869052559132	0.5208760556433278	-0.005228060962916281	-0.06904405290861719	0.5403964219124533	0.009607107760687073	-0.0734090327094195	0.5100666493113839	0.03606272845939584	-0.07727243294929807	0.5057879981075533	-0.004866820942158401	-0.051103665752484914	0.5217695541869876	-0.010987181659096623	-0.050741657500573065	0.5370979594906788	0.0030657981123167755	-0.053634021480091554	0.5134041251593393	0.030217188860113375	-0.05514651813777724	0.462283081001861	-0.023011742144276925	-0.051989820119430985
